# xmcd
#
# Track frame offsets:
#	150
#	19772
#	39435
#	58970
#
# Disc length: 1045 seconds
#
# Revision: 0
# Processed by: cddbd v1.4PL0 Copyright (c) Steve Scherf et al.
# Submitted via: audiograbber 1.80
#
DISCID=2e041304
DTITLE=Foxy Brown - Oh Yeah
DYEAR=1900
DGENRE=
TTITLE0=Oh Yeah (Radio Edit - Clean)
TTITLE1=Oh Yeah (Explicit Album Version)
TTITLE2=BK Anthem (Radio Edit - Clean)
TTITLE3=BK Anthem (Explicit Album Version)
EXTD=
EXTT0=
EXTT1=
EXTT2=
EXTT3=
PLAYORDER=
